<svg width="80" height="80" viewBox="0 0 80 80" fill="none" xmlns="http://www.w3.org/2000/svg">
<circle cx="40" cy="40" r="40" fill="url(#paint0_linear_349_729)"/>
<path d="M25.2913 24.0934L28.5298 23.3981L29.225 20.1596C29.3302 19.6704 30.0281 19.6704 30.1332 20.1596L30.8284 23.3981L34.0669 24.0934C34.5561 24.1985 34.5561 24.8964 34.0669 25.001L30.8284 25.6968L30.1332 28.9353C30.0281 29.4245 29.3302 29.4245 29.225 28.9353L28.5298 25.6968L25.2913 25.001C24.8026 24.8959 24.8026 24.1985 25.2913 24.0934Z" fill="white"/>
<path d="M63.3587 59.4151V61H60.9813V59.4151C60.9813 58.6459 60.5788 58.2528 59.808 57.5655C58.9659 56.8148 57.8115 55.7872 57.8115 53.8679C57.8115 52.2429 58.8375 51.1097 59.6611 50.1983C60.9766 48.745 61.7025 47.943 59.5079 45.4235C59.5047 45.4199 59.4994 45.4135 59.4958 45.4098L61.32 43.8867C64.8707 47.9832 62.7987 50.276 61.4241 51.7943C60.7616 52.5266 60.1889 53.1595 60.1889 53.8685C60.1889 54.6842 60.6004 55.0883 61.3897 55.7909C62.2213 56.53 63.3587 57.5439 63.3587 59.4151Z" fill="white"/>
<path d="M50.3358 41.7318C49.4842 41.8992 48.6886 41.9811 47.9057 41.9811H23.2989L26.2585 35.3198C26.3853 35.035 26.67 34.849 26.9828 34.849H36.5218C36.1525 34.0952 35.8583 33.3001 35.6438 32.4717H26.9828C25.7302 32.4717 24.5949 33.2097 24.0861 34.3545L22.8097 37.2264H17.7925C17.355 37.2264 17 37.5809 17 38.0188V39.0971C17 39.8526 17.5331 40.5029 18.2743 40.6514L21.0426 41.205L18.5849 46.7358V59.4151C18.5849 60.2905 19.2944 61 20.1698 61H24.9245C25.7999 61 26.5094 60.2905 26.5094 59.4151V54.6604H45.5283V59.4151C45.5283 60.2905 46.2378 61 47.1132 61H51.8679C52.7433 61 53.4528 60.2905 53.4528 59.4151V46.7358L51.1574 41.5706L50.3358 41.7318ZM24.9245 50.6981C23.6117 50.6981 22.5472 49.6336 22.5472 48.3207C22.5472 47.0079 23.6117 45.9434 24.9245 45.9434C26.2374 45.9434 27.3019 47.0079 27.3019 48.3207C27.3019 49.6336 26.2374 50.6981 24.9245 50.6981ZM39.1887 49.9056H32.8491C31.9731 49.9056 31.2642 49.1967 31.2642 48.3207C31.2642 47.4448 31.9731 46.7358 32.8491 46.7358H39.1887C40.0646 46.7358 40.7736 47.4448 40.7736 48.3207C40.7736 49.1967 40.0646 49.9056 39.1887 49.9056ZM47.1132 50.6981C45.8004 50.6981 44.7358 49.6336 44.7358 48.3207C44.7358 47.0079 45.8004 45.9434 47.1132 45.9434C48.426 45.9434 49.4906 47.0079 49.4906 48.3207C49.4906 49.6336 48.426 50.6981 47.1132 50.6981Z" fill="white"/>
<path d="M37.6035 29.3019C37.6035 23.6189 42.2225 19 47.9054 19C53.5883 19 58.2073 23.6189 58.2073 29.3019C58.2073 30.7986 57.8908 32.2086 57.3187 33.4845L51.4836 26.4871C50.5765 25.4083 49.2473 24.7907 47.8388 24.7907C46.7336 24.7907 45.6564 25.1801 44.8037 25.8859C43.8243 26.6968 43.222 27.8422 43.1074 29.1106C42.9927 30.3807 43.38 31.6164 44.1925 32.5832L49.8776 39.4004C49.2388 39.524 48.5843 39.6038 47.9054 39.6038C42.2225 39.6038 37.6035 35.0023 37.6035 29.3019Z" fill="white"/>
<path d="M60.7278 41.2839L57.0825 44.3269L46.0199 31.0612C45.1799 30.0628 45.3067 28.5571 46.321 27.7171C47.3353 26.8771 48.8252 27.0197 49.6652 28.0182L60.7278 41.2839Z" fill="white"/>
<defs>
<linearGradient id="paint0_linear_349_729" x1="40" y1="0" x2="40" y2="80" gradientUnits="userSpaceOnUse">
<stop stop-color="#338EC9"/>
<stop offset="1" stop-color="#002A8E"/>
</linearGradient>
</defs>
</svg>
