<svg width="80" height="80" viewBox="0 0 80 80" fill="none" xmlns="http://www.w3.org/2000/svg">
<circle cx="40" cy="39.9995" r="40" fill="url(#paint0_linear_349_770)"/>
<path d="M49.0326 29.2333H59.1511C60.463 29.2333 61.5301 28.17 61.5301 26.8543V23.882H57.5106C57.6631 23.4791 57.7592 23.049 57.7592 22.5954C57.7592 20.572 56.1152 18.928 54.0918 18.928C52.0721 18.928 50.4244 20.572 50.4244 22.5954C50.4244 23.049 50.5206 23.4791 50.673 23.882H46.6572V26.8562C46.6554 28.17 47.7188 29.2333 49.0326 29.2333ZM54.09 21.3052C54.7995 21.3052 55.3802 21.8804 55.3802 22.5954C55.3802 23.3067 54.7995 23.882 54.09 23.882C53.3805 23.882 52.8034 23.3067 52.8034 22.5954C52.8052 21.8822 53.3823 21.3052 54.09 21.3052Z" fill="white"/>
<path d="M62.813 33.2981H51.1104V34.621H62.813V33.2981Z" fill="white"/>
<path d="M37.3513 50.9585C35.8488 50.9585 34.6112 50.9585 34.6112 50.9585C34.6112 50.9585 29.3614 50.9585 27.3381 50.9585C25.3148 50.9585 26.9806 48.6357 29.2489 48.6357C31.51 48.6357 34.6112 48.6357 34.6112 48.6357C34.6112 48.6357 35.8615 48.6357 37.3513 48.6357V46.0335C35.8415 46.0335 34.6112 46.0335 34.6112 46.0335C34.6112 46.0335 31.2686 46.0335 28.8243 46.0335C28.1892 46.0335 27.5976 45.6978 27.1058 45.2097H37.3513V44.0519H26.2656C26.1132 43.7579 25.9934 43.4531 25.9082 43.1555H37.3531V41.9959H25.8174C25.9027 41.5078 26.1967 41.1739 26.7665 41.1739C28.9495 41.1739 34.6094 41.1739 34.6094 41.1739C34.6094 41.1739 35.8288 41.1739 37.3495 41.1739V36.5121C36.1264 36.5357 35.1556 36.5211 34.6094 36.5211C32.4935 36.5211 24.1262 36.728 18.7766 34.1966C18.7403 34.1458 18.7022 34.1004 18.6659 34.0478C19.693 31.3222 22.4694 25.7821 25.7829 25.7821H37.7233C38.128 24.804 38.8538 24.0001 39.7575 23.4702H25.7829C20.829 23.4702 17.6914 30.2007 16.6389 32.8646C15.9911 32.2531 15.0439 31.765 13.6938 31.765C13.6938 31.765 12.6975 31.765 11.9172 31.765C11.1369 31.765 10.5 31.9773 10.5 33.6086C10.5 34.986 11.0135 35.7046 13.4815 35.8969C12.5034 36.9222 11.7231 38.3068 11.7231 40.1232C11.7231 45.0082 11.7231 46.039 11.7231 48.0968C11.7231 49.6882 11.8864 52.1997 14.4632 53.2558V56.0667C14.4632 56.9214 15.1546 57.6128 16.0093 57.6128H22.3115C23.1626 57.6128 23.854 56.9214 23.854 56.0667V53.7548C29.082 53.7548 34.6148 53.7548 34.6148 53.7548C34.6148 53.7548 35.7 53.7548 37.3549 53.7548V50.9585H37.3513ZM21.5893 50.9585C20.6965 50.9585 19.0978 50.9585 18.3175 50.9585C17.1942 50.9585 15.4177 48.9007 16.7297 48.9007C17.4773 48.9007 18.4064 48.9007 19.5714 48.9007C20.6421 48.9007 21.4042 49.69 21.8288 50.287C22.0974 50.6572 22.2172 50.9585 21.5893 50.9585ZM22.9013 43.5928C21.3552 43.5928 18.2576 43.5928 16.5791 43.5928C14.6446 43.5928 14.534 41.9197 15.5901 40.5932C16.5301 39.4209 19.0778 39.4246 20.711 40.0579C24.1951 41.4062 24.4528 43.5928 22.9013 43.5928Z" fill="white"/>
<path d="M65.9918 25.0507H62.8579V27.0304H65.9918C66.3184 27.0304 66.587 27.2972 66.587 27.6275V52.6006H61.5151C60.5333 52.6006 59.7331 53.4045 59.7331 54.3862V58.9446H42.1891C41.8625 58.9446 41.5939 58.6797 41.5939 58.3512V27.6275C41.5939 27.2972 41.8625 27.0304 42.1891 27.0304H45.3266V25.0507H42.1891C40.7682 25.0507 39.6123 26.2048 39.6123 27.6275V58.3512C39.6123 59.7703 40.7682 60.928 42.1891 60.928H65.9918C67.4127 60.928 68.5686 59.7703 68.5686 58.3512V27.6275C68.5686 26.2048 67.4127 25.0507 65.9918 25.0507ZM61.7147 58.9428V54.584H66.5888L61.7147 58.9428Z" fill="white"/>
<path d="M49.5855 31.3729C49.4621 31.2386 49.2516 31.2313 49.121 31.3566L46.7075 33.6031L45.0453 32.2621C44.911 32.155 44.7186 32.1477 44.5735 32.253C44.4065 32.38 44.3757 32.6214 44.4991 32.7901L46.2212 35.0657C46.2593 35.1147 46.3065 35.1655 46.3627 35.2018C46.6567 35.4141 47.0686 35.347 47.2809 35.0512L47.2882 35.0385L49.6127 31.7866C49.7035 31.6632 49.6962 31.4908 49.5855 31.3729Z" fill="white"/>
<path d="M62.813 38.8691H51.1104V40.192H62.813V38.8691Z" fill="white"/>
<path d="M49.5855 36.9421C49.4621 36.8096 49.2516 36.8005 49.121 36.9239L46.7075 39.1723L45.0453 37.8331C44.911 37.7242 44.7186 37.7169 44.5735 37.824C44.4065 37.951 44.3757 38.1887 44.4991 38.3593L46.2212 40.6331C46.2593 40.6857 46.3065 40.7329 46.3627 40.7728C46.6567 40.9833 47.0686 40.9162 47.2809 40.6204L47.2882 40.6077L49.6127 37.3576C49.7035 37.2342 49.6962 37.0619 49.5855 36.9421Z" fill="white"/>
<path d="M62.813 44.4382H51.1104V45.7611H62.813V44.4382Z" fill="white"/>
<path d="M49.5855 42.5149C49.4621 42.3806 49.2516 42.3733 49.121 42.4967L46.7075 44.7433L45.0453 43.404C44.911 43.297 44.7186 43.2897 44.5735 43.395C44.4065 43.522 44.3757 43.7615 44.4991 43.9303L46.2212 46.2059C46.2593 46.2567 46.3065 46.3057 46.3627 46.3438C46.6567 46.5561 47.0686 46.4889 47.2809 46.1913L47.2882 46.1805L49.6127 42.9286C49.7035 42.8034 49.6962 42.631 49.5855 42.5149Z" fill="white"/>
<path d="M62.813 50.0073H51.1104V51.332H62.813V50.0073Z" fill="white"/>
<path d="M49.121 48.0658L46.7075 50.3123L45.0453 48.9749C44.911 48.866 44.7186 48.8588 44.5735 48.9658C44.4065 49.0911 44.3757 49.3306 44.4991 49.4994L46.2212 51.7749C46.2593 51.8257 46.3065 51.8747 46.3627 51.9146C46.6567 52.1251 47.0686 52.058 47.2809 51.7622L47.2882 51.7495L49.6127 48.4995C49.7017 48.3743 49.6944 48.2001 49.5837 48.0839C49.4621 47.9515 49.2516 47.9424 49.121 48.0658Z" fill="white"/>
<defs>
<linearGradient id="paint0_linear_349_770" x1="40" y1="-0.000488281" x2="40" y2="79.9995" gradientUnits="userSpaceOnUse">
<stop stop-color="#338EC9"/>
<stop offset="1" stop-color="#002A8E"/>
</linearGradient>
</defs>
</svg>
