<svg width="80" height="80" viewBox="0 0 80 80" fill="none" xmlns="http://www.w3.org/2000/svg">
<circle cx="40" cy="39.9995" r="40" fill="url(#paint0_linear_349_741)"/>
<path d="M58.8475 32.9557C59.2915 32.9557 59.7258 33.0387 60.1307 33.1899V31.0089C59.8624 31.0821 59.5843 31.1211 59.2915 31.1211H56.364C56.2469 31.1211 56.1298 31.1163 56.0127 31.1016V33.4583L58.0961 33.0338C58.3449 32.985 58.5987 32.9557 58.8475 32.9557Z" fill="white"/>
<path d="M58.2469 33.7462L52.3724 34.9464C51.1672 35.1904 50.2402 36.1565 50.0401 37.3665L47.542 52.4774L49.357 52.5652C49.7523 50.916 51.2307 49.6865 53.0018 49.6865C54.9584 49.6865 56.5685 51.1941 56.7344 53.1117C57.476 53.3898 58.0908 53.8826 58.4714 54.5022L61.7502 37.2006C62.1015 35.3368 60.6524 33.6827 58.8519 33.6827C58.6519 33.6827 58.4518 33.7023 58.2469 33.7462Z" fill="white"/>
<path d="M56.7154 53.9021C56.486 55.7513 54.9052 57.1857 52.9974 57.1857C50.9287 57.1857 49.2502 55.5024 49.2502 53.4385C49.2502 53.3897 49.2551 53.3458 49.2551 53.297L33.4856 52.5261C33.4075 52.5261 33.3246 52.5212 33.2465 52.5212C30.7337 52.5212 28.7723 54.4583 29.1529 56.6344L29.5822 59.0837C29.7774 60.2157 30.9045 61.0501 32.2316 61.0501H55.3687C56.9203 61.0501 58.1791 59.962 58.1791 58.6251V56.0245C58.1791 55.1121 57.5887 54.3168 56.7154 53.9069V53.9021Z" fill="white"/>
<path d="M59.2967 19.05H56.3692C54.9545 19.05 53.8076 20.1969 53.8076 21.6116V27.8228C53.8076 29.2375 54.9545 30.3844 56.3692 30.3844H59.2967C60.7114 30.3844 61.8583 29.2375 61.8583 27.8228V21.6116C61.8583 20.1969 60.7114 19.05 59.2967 19.05Z" fill="white"/>
<path d="M53.694 56.3748C55.3148 55.9922 56.3186 54.3682 55.9361 52.7474C55.5535 51.1266 53.9295 50.1228 52.3087 50.5053C50.6879 50.8879 49.6841 52.5119 50.0667 54.1327C50.4492 55.7535 52.0732 56.7573 53.694 56.3748Z" fill="white"/>
<path d="M29.1956 28.4232L28.9365 29.1129L33.3305 30.7636L33.5896 30.0739L29.1956 28.4232Z" fill="white"/>
<path d="M37.4038 27.6519L36.8866 27.4567C36.7792 27.4177 36.667 27.3982 36.5548 27.3982C36.1645 27.3982 35.8083 27.647 35.6668 28.013L35.374 28.7888C36.1059 30.0769 37.5892 31.4723 37.5892 31.4723L38.7309 30.5794C37.5013 29.3547 37.3355 28.3057 37.3989 27.6519H37.4038Z" fill="white"/>
<path d="M29.0015 27.569L34.3052 29.5597L34.9834 27.7544C35.2371 27.0811 35.8763 26.6664 36.5545 26.6664C36.7496 26.6664 36.9497 26.7005 37.1448 26.7737L37.9548 27.0762C37.8767 26.9054 37.8621 26.7005 37.9304 26.5102L38.833 24.1097C38.9062 23.9145 39.0575 23.7779 39.2331 23.6998L31.3972 20.7577C31.3972 20.7577 30.8605 20.5576 30.0749 20.5576C28.8844 20.5576 27.1132 21.0163 25.7422 23.3241C25.7422 23.3241 30.5872 23.3436 29.0015 27.569Z" fill="white"/>
<path d="M39.5227 24.3636L38.6201 26.7661L40.8582 27.6069L41.7608 25.2044L39.5227 24.3636Z" fill="white"/>
<path d="M20.2288 43.9875L30.0896 47.6908C30.4897 47.8421 30.8995 47.9104 31.2996 47.9104C32.6951 47.9104 34.0076 47.0565 34.5248 45.6757L35.725 42.4848C35.9641 41.8505 36.1105 41.1918 36.1739 40.5282C35.8812 40.6063 35.403 40.699 34.7638 40.699C33.3245 40.699 31.0459 40.2257 28.3819 37.9569C28.377 37.9569 28.3721 37.9471 28.3672 37.9422C25.6544 35.6344 22.9465 35.288 21.5705 35.288C20.8777 35.288 20.4581 35.3709 20.4532 35.3758C20.4044 35.3855 20.3507 35.3904 20.3019 35.3904C20.1653 35.3904 20.0336 35.3465 19.9165 35.2733C19.7213 35.6197 19.5457 35.9759 19.4091 36.3516L18.2088 39.5426C17.5403 41.3284 18.443 43.3142 20.2239 43.9827L20.2288 43.9875Z" fill="white"/>
<path d="M21.5752 34.561C23.1561 34.561 26.0006 34.9659 28.8452 37.386C28.8452 37.386 28.8501 37.3909 28.855 37.3909C31.358 39.5231 33.4609 39.9622 34.7685 39.9622C35.6907 39.9622 36.2177 39.7427 36.2177 39.7427C36.2177 39.1572 36.1396 38.5717 36.003 37.9959L35.5687 36.2101C35.4467 35.7173 35.4223 35.2099 35.4955 34.7122C35.6809 33.4388 34.9686 32.1555 33.7098 31.6871L28.0401 29.5549C27.7181 29.4329 27.3815 29.3744 27.0545 29.3744C26.1129 29.3744 25.2151 29.8526 24.6979 30.6576C24.4247 31.0821 24.0685 31.448 23.6538 31.7408L22.1558 32.7947C21.4337 33.307 20.8043 33.9364 20.3018 34.6537C20.3018 34.6537 20.3115 34.6537 20.3262 34.6537C20.4286 34.6342 20.8775 34.5561 21.5703 34.5561L21.5752 34.561Z" fill="white"/>
<path d="M51.4607 24.7002C51.2606 24.7148 51.1045 24.8905 51.1191 25.0905C51.1338 25.2857 51.2948 25.432 51.4851 25.432C51.4948 25.432 51.5046 25.432 51.5095 25.432L51.6168 25.4223C51.8168 25.4076 51.973 25.232 51.9583 25.0319C51.9437 24.8319 51.768 24.6758 51.568 24.6904L51.4607 24.7002Z" fill="white"/>
<path d="M45.6203 25.105L43.6735 25.2416C43.4735 25.2562 43.3174 25.4319 43.332 25.6319C43.3466 25.8271 43.5077 25.9735 43.6979 25.9735C43.7077 25.9735 43.7175 25.9735 43.7223 25.9735L45.6691 25.8368C45.8692 25.8222 46.0253 25.6465 46.0107 25.4465C45.996 25.2465 45.8155 25.0903 45.6203 25.105Z" fill="white"/>
<path d="M49.5134 24.8366L47.5666 24.9733C47.3666 24.9879 47.2153 25.1635 47.2251 25.3636C47.2397 25.5588 47.4007 25.7051 47.591 25.7051C47.6008 25.7051 47.6105 25.7051 47.6154 25.7051L49.5622 25.5685C49.7622 25.5539 49.9135 25.3782 49.9037 25.1782C49.8891 24.9781 49.7232 24.822 49.5134 24.8366Z" fill="white"/>
<path d="M49.7385 28.7597L47.8405 28.3059C47.6502 28.2571 47.4453 28.3791 47.4014 28.5791C47.3526 28.7743 47.4746 28.9744 47.6697 29.0183L49.5677 29.472C49.597 29.4769 49.6263 29.4818 49.6556 29.4818C49.8215 29.4818 49.9727 29.3696 50.0117 29.1988C50.0605 29.0036 49.9386 28.8036 49.7434 28.7597H49.7385Z" fill="white"/>
<path d="M45.9416 27.8521L44.0436 27.3984C43.8533 27.3544 43.6484 27.4715 43.6045 27.6716C43.5557 27.8668 43.6777 28.0668 43.8729 28.1107L45.7709 28.5645C45.8001 28.5694 45.8294 28.5742 45.8587 28.5742C46.0246 28.5742 46.1758 28.462 46.2149 28.2912C46.2637 28.0961 46.1417 27.896 45.9465 27.8521H45.9416Z" fill="white"/>
<path d="M45.6786 31.5407C45.5517 31.6968 45.5761 31.931 45.7371 32.053L47.2643 33.2728C47.3326 33.3265 47.4107 33.3509 47.4936 33.3509C47.601 33.3509 47.7083 33.3021 47.7815 33.2143C47.9084 33.0581 47.884 32.8239 47.7229 32.702L46.1958 31.4822C46.0396 31.3553 45.8103 31.3797 45.6834 31.5407H45.6786Z" fill="white"/>
<path d="M44.2096 30.8381C44.2779 30.8918 44.356 30.9162 44.4389 30.9162C44.5463 30.9162 44.6536 30.8674 44.7268 30.7796C44.8537 30.6234 44.8293 30.3892 44.6683 30.2673L43.1411 29.0475C42.9849 28.9206 42.7556 28.945 42.6288 29.106C42.5019 29.2621 42.5263 29.4963 42.6873 29.6183L44.2145 30.8381H44.2096Z" fill="white"/>
<path d="M44.1071 36.7809C43.9217 36.8639 43.8436 37.0835 43.9266 37.2689L44.7463 39.04C44.8097 39.1718 44.9415 39.2498 45.0781 39.2498C45.1317 39.2498 45.1805 39.2401 45.2342 39.2157C45.4196 39.1327 45.4977 38.9132 45.4147 38.7277L44.595 36.9566C44.5121 36.7712 44.2876 36.6931 44.1071 36.7761V36.7809Z" fill="white"/>
<path d="M42.2879 33.7266L43.1076 35.4977C43.171 35.6295 43.3028 35.7075 43.4394 35.7075C43.4931 35.7075 43.5419 35.6978 43.5955 35.6734C43.7809 35.5904 43.859 35.3709 43.7761 35.1855L42.9564 33.4143C42.8685 33.2289 42.649 33.1509 42.4684 33.2387C42.283 33.3216 42.205 33.5412 42.2879 33.7266Z" fill="white"/>
<path d="M45.7516 40.3233C45.5662 40.4062 45.4882 40.6258 45.5711 40.8112L45.9761 41.6894C46.0395 41.8212 46.1713 41.8992 46.3079 41.8992C46.3615 41.8992 46.4103 41.8895 46.464 41.8651C46.6494 41.7821 46.7275 41.5626 46.6445 41.3772L46.2396 40.4989C46.1566 40.3135 45.9322 40.2354 45.7516 40.3233Z" fill="white"/>
<path d="M41.7998 32.1653C41.8534 32.1653 41.9022 32.1556 41.9559 32.1312C42.1413 32.0482 42.2194 31.8286 42.1364 31.6432L41.3167 29.8721C41.2338 29.6867 41.0142 29.6086 40.8288 29.6964C40.6434 29.7794 40.5653 29.999 40.6483 30.1844L41.468 31.9555C41.5314 32.0872 41.6631 32.1653 41.7998 32.1653Z" fill="white"/>
<defs>
<linearGradient id="paint0_linear_349_741" x1="40" y1="-0.000488281" x2="40" y2="79.9995" gradientUnits="userSpaceOnUse">
<stop stop-color="#338EC9"/>
<stop offset="1" stop-color="#002A8E"/>
</linearGradient>
</defs>
</svg>
