<svg width="48" height="48" viewBox="0 0 48 48" fill="none" xmlns="http://www.w3.org/2000/svg">
<rect width="48" height="48" rx="4" fill="url(#paint0_linear_349_1087)"/>
<path d="M27.8176 11.255L28.2937 12.2501C28.3279 12.315 28.3767 12.3711 28.4361 12.4141C28.4956 12.457 28.5642 12.4857 28.6365 12.4977L29.7364 12.6596C29.8152 12.6792 29.8877 12.7185 29.947 12.7739C30.0063 12.8293 30.0505 12.899 30.0753 12.9763C30.1001 13.0536 30.1047 13.1359 30.0888 13.2155C30.0728 13.2951 30.0367 13.3693 29.984 13.431L29.1889 14.2071C29.1376 14.26 29.0993 14.3241 29.077 14.3944C29.0547 14.4646 29.049 14.539 29.0603 14.6118L29.246 15.707C29.2522 15.7881 29.2375 15.8695 29.2033 15.9434C29.1691 16.0172 29.1165 16.0811 29.0506 16.1288C28.9847 16.1766 28.9077 16.2067 28.8268 16.2162C28.746 16.2257 28.6641 16.2143 28.5889 16.1831L27.608 15.6641C27.5422 15.6314 27.4697 15.6144 27.3962 15.6144C27.3226 15.6144 27.2501 15.6314 27.1843 15.6641L26.2367 16.1831C26.1616 16.2143 26.0796 16.2257 25.9988 16.2162C25.918 16.2067 25.8409 16.1766 25.775 16.1288C25.7091 16.0811 25.6566 16.0172 25.6224 15.9434C25.5882 15.8695 25.5735 15.7881 25.5797 15.707L25.7701 14.6118C25.7809 14.5387 25.7744 14.464 25.7513 14.3937C25.7281 14.3235 25.6889 14.2596 25.6368 14.2071L24.8083 13.431C24.7556 13.3689 24.7197 13.2944 24.704 13.2145C24.6883 13.1347 24.6934 13.0521 24.7187 12.9747C24.744 12.8973 24.7887 12.8277 24.8486 12.7726C24.9085 12.7174 24.9815 12.6785 25.0607 12.6596L26.1606 12.4977C26.2329 12.4857 26.3015 12.457 26.361 12.4141C26.4204 12.3711 26.4692 12.315 26.5034 12.2501L26.9795 11.255C27.0203 11.1794 27.0808 11.1163 27.1546 11.0723C27.2283 11.0282 27.3126 11.005 27.3985 11.005C27.4844 11.005 27.5687 11.0282 27.6425 11.0723C27.7163 11.1163 27.7768 11.1794 27.8176 11.255ZM34.1265 12.9072L33.6932 13.7833C33.6594 13.8527 33.6092 13.9127 33.547 13.9583C33.4848 14.0039 33.4124 14.0338 33.3361 14.0452L32.3838 14.1833C32.2952 14.1954 32.2119 14.2321 32.1432 14.2893C32.0745 14.3466 32.0234 14.422 31.9955 14.5069C31.9677 14.5919 31.9644 14.6829 31.9859 14.7697C32.0074 14.8565 32.0529 14.9354 32.1172 14.9975L32.8171 15.6784C32.8722 15.7319 32.9136 15.798 32.9376 15.871C32.9617 15.9439 32.9677 16.0216 32.9552 16.0974L32.7885 17.0497C32.773 17.1374 32.7823 17.2278 32.8155 17.3104C32.8487 17.3931 32.9044 17.4648 32.9763 17.5174C33.0483 17.57 33.1335 17.6013 33.2223 17.6079C33.3112 17.6144 33.4001 17.5959 33.479 17.5544L34.3455 17.0783C34.4138 17.0424 34.4898 17.0237 34.567 17.0237C34.6441 17.0237 34.7201 17.0424 34.7884 17.0783L35.6502 17.5544C35.7292 17.5972 35.8187 17.6168 35.9083 17.6109C35.998 17.605 36.0841 17.5739 36.1568 17.5211C36.2295 17.4683 36.2858 17.3961 36.3192 17.3126C36.3525 17.2292 36.3616 17.1381 36.3454 17.0497L36.1787 16.0974C36.1662 16.0216 36.1723 15.9439 36.1963 15.871C36.2203 15.798 36.2617 15.7319 36.3168 15.6784L37.0167 14.9975C37.081 14.9354 37.1265 14.8565 37.148 14.7697C37.1695 14.6829 37.1662 14.5919 37.1384 14.5069C37.1106 14.422 37.0594 14.3466 36.9907 14.2893C36.9221 14.2321 36.8387 14.1954 36.7501 14.1833L35.7978 14.0452C35.7215 14.0338 35.6492 14.0039 35.5869 13.9583C35.5247 13.9127 35.4745 13.8527 35.4407 13.7833L34.9788 12.9072C34.9393 12.828 34.8785 12.7613 34.8033 12.7147C34.728 12.6682 34.6412 12.6435 34.5527 12.6435C34.4641 12.6435 34.3774 12.6682 34.3021 12.7147C34.2268 12.7613 34.166 12.828 34.1265 12.9072ZM30.2221 18.4972L29.884 19.1829C29.8616 19.2289 29.8281 19.2687 29.7866 19.2986C29.7451 19.3285 29.6967 19.3476 29.646 19.3543L28.8841 19.4686C28.8259 19.4761 28.7709 19.5 28.7258 19.5376C28.6806 19.5752 28.6471 19.6249 28.6291 19.6808C28.6112 19.7367 28.6095 19.7966 28.6243 19.8535C28.6391 19.9103 28.6698 19.9618 28.7127 20.0018L29.265 20.5399C29.3007 20.5755 29.3272 20.6192 29.3421 20.6673C29.3571 20.7155 29.36 20.7665 29.3508 20.8161L29.2222 21.5731C29.2098 21.6335 29.2155 21.6963 29.2385 21.7535C29.2615 21.8107 29.3008 21.8599 29.3516 21.8949C29.4023 21.93 29.4623 21.9493 29.5239 21.9505C29.5856 21.9517 29.6463 21.9347 29.6983 21.9017L30.3792 21.5446C30.4241 21.5212 30.4739 21.509 30.5245 21.509C30.575 21.509 30.6248 21.5212 30.6697 21.5446L31.3506 21.9017C31.402 21.9297 31.4602 21.9425 31.5187 21.9388C31.5771 21.935 31.6332 21.9147 31.6806 21.8803C31.7279 21.8459 31.7645 21.7988 31.7862 21.7444C31.8079 21.6901 31.8137 21.6307 31.8029 21.5731L31.6744 20.8161C31.6648 20.7661 31.6681 20.7146 31.6839 20.6663C31.6997 20.618 31.7276 20.5745 31.7648 20.5399L32.3124 20.0018C32.3554 19.9618 32.386 19.9103 32.4008 19.8535C32.4156 19.7966 32.4139 19.7367 32.396 19.6808C32.378 19.6249 32.3445 19.5752 32.2993 19.5376C32.2542 19.5 32.1992 19.4761 32.141 19.4686L31.3791 19.3543C31.3289 19.3477 31.2812 19.3285 31.2404 19.2986C31.1996 19.2686 31.1671 19.2288 31.1458 19.1829L30.803 18.4972C30.7779 18.4403 30.7364 18.3921 30.6838 18.3587C30.6313 18.3254 30.57 18.3084 30.5078 18.3099C30.4455 18.3115 30.3852 18.3314 30.3343 18.3673C30.2835 18.4032 30.2444 18.4534 30.2221 18.5115V18.4972ZM15.3377 35.4576V25.4299C15.3377 25.1774 15.2374 24.9351 15.0588 24.7566C14.8802 24.578 14.638 24.4776 14.3854 24.4776H11.9523C11.6997 24.4776 11.4575 24.578 11.2789 24.7566C11.1003 24.9351 11 25.1774 11 25.4299V35.4576C11 35.7102 11.1003 35.9524 11.2789 36.131C11.4575 36.3096 11.6997 36.4099 11.9523 36.4099H14.3854C14.638 36.4099 14.8802 36.3096 15.0588 36.131C15.2374 35.9524 15.3377 35.7102 15.3377 35.4576ZM29.146 30.4438H28.6175C28.7955 30.4431 28.9718 30.4777 29.1364 30.5453C29.301 30.613 29.4507 30.7125 29.5768 30.8381C29.7028 30.9638 29.8029 31.1131 29.8711 31.2774C29.9394 31.4418 29.9745 31.618 29.9745 31.796C29.9751 31.9744 29.9405 32.1512 29.8725 32.3161C29.8045 32.481 29.7046 32.6309 29.5784 32.757C29.4523 32.8831 29.3025 32.9831 29.1375 33.051C28.9726 33.119 28.7959 33.1537 28.6175 33.153H27.5414C27.8713 33.1543 28.1895 33.2756 28.4365 33.4945C28.6834 33.7133 28.8421 34.0146 28.883 34.342C28.9238 34.6694 28.844 35.0005 28.6584 35.2733C28.4728 35.5461 28.1942 35.742 27.8747 35.8242L26.7748 36.2385C25.1057 36.786 23.3551 37.0436 21.5991 37.0003C19.6586 36.9479 17.7521 36.4786 16.0091 35.6243C16.0091 35.5671 16.0091 35.5147 16.0091 35.4576V25.4299C16.0084 25.1711 15.9549 24.9151 15.8519 24.6776L16.2519 24.0062C16.6947 23.2682 17.966 22.7968 17.966 22.7968C18.2461 22.709 18.506 22.5666 18.7307 22.3778C18.9554 22.189 19.1406 21.9576 19.2755 21.6969L21.0896 18.4305C21.331 17.99 21.7336 17.6601 22.213 17.5101C22.6924 17.36 23.2113 17.4015 23.6608 17.6259C24.0944 17.8396 24.4325 18.2076 24.6086 18.6578C24.7848 19.108 24.7864 19.6077 24.6131 20.059L22.9323 24.4776H27.8128C28.2439 24.4789 28.6568 24.651 28.9612 24.9563C29.2655 25.2615 29.4365 25.675 29.4365 26.1061V26.3775C29.4365 26.555 29.4015 26.7309 29.3335 26.8949C29.2656 27.059 29.166 27.2081 29.0404 27.3337C28.9148 27.4592 28.7657 27.5588 28.6017 27.6268C28.4376 27.6947 28.2618 27.7297 28.0842 27.7297H29.1651C29.525 27.7297 29.8701 27.8727 30.1246 28.1272C30.3791 28.3817 30.5221 28.7268 30.5221 29.0867C30.5221 29.4466 30.3791 29.7918 30.1246 30.0463C29.8701 30.3008 29.525 30.4438 29.1651 30.4438H29.146Z" fill="white"/>
<defs>
<linearGradient id="paint0_linear_349_1087" x1="24" y1="0" x2="24" y2="48" gradientUnits="userSpaceOnUse">
<stop stop-color="#338EC9"/>
<stop offset="1" stop-color="#002A8E"/>
</linearGradient>
</defs>
</svg>
