<svg width="48" height="48" viewBox="0 0 48 48" fill="none" xmlns="http://www.w3.org/2000/svg">
<rect width="48" height="48" rx="4" fill="url(#paint0_linear_349_1082)"/>
<path d="M35.2784 24.3092C35.212 24.1046 35.212 23.8884 35.2784 23.6843L35.8922 21.7951C36.2865 20.5815 35.8576 19.2619 34.8254 18.5118L33.2184 17.3443C33.0446 17.2177 32.9175 17.0429 32.851 16.8383L32.2372 14.9492C31.8429 13.7355 30.7202 12.92 29.4439 12.92H27.4575C27.2428 12.92 27.0373 12.853 26.8635 12.7269L25.2564 11.5594C24.2238 10.8084 22.8363 10.8089 21.8036 11.5594L20.1971 12.7269C20.0228 12.8535 19.8172 12.92 19.6025 12.92H17.6161C16.3398 12.92 15.2176 13.7355 14.8229 14.9492L14.2095 16.8383C14.1431 17.0425 14.016 17.2177 13.8422 17.3438L12.2352 18.5113C11.2025 19.2614 10.774 20.581 11.1683 21.7947L11.7821 23.6838C11.8486 23.8884 11.8486 24.1046 11.7821 24.3087L11.1683 26.1978C10.774 27.4115 11.203 28.7311 12.2352 29.4812L13.8422 30.6487C14.016 30.7753 14.1431 30.95 14.2095 31.1547L14.8233 33.0438C15.2176 34.2575 16.3403 35.073 17.6166 35.073H19.603C19.8177 35.073 20.0233 35.1399 20.1971 35.2661L21.8041 36.4335C22.3202 36.8091 22.9253 36.9963 23.5305 36.9963C24.1357 36.9963 24.7408 36.8086 25.2569 36.4335L26.8635 35.2661C27.0377 35.1395 27.2433 35.073 27.458 35.073H29.4444C30.7207 35.073 31.8429 34.2575 32.2377 33.0438L32.851 31.1547C32.9175 30.9505 33.0446 30.7753 33.2184 30.6491L34.8254 29.4817C35.858 28.7316 36.2865 27.412 35.8922 26.1983L35.2784 24.3092ZM28.78 21.5443L22.687 27.6373C22.4993 27.8256 22.2528 27.9194 22.0063 27.9194C21.7598 27.9194 21.5133 27.8256 21.3256 27.6373L18.2791 24.5908C17.9031 24.2148 17.9031 23.6053 18.2791 23.2293C18.6546 22.8533 19.265 22.8533 19.6405 23.2293L22.0063 25.5951L27.4185 20.1828C27.7941 19.8068 28.4045 19.8068 28.78 20.1828C29.156 20.5588 29.156 21.1683 28.78 21.5443Z" fill="white"/>
<defs>
<linearGradient id="paint0_linear_349_1082" x1="24" y1="0" x2="24" y2="48" gradientUnits="userSpaceOnUse">
<stop stop-color="#338EC9"/>
<stop offset="1" stop-color="#002A8E"/>
</linearGradient>
</defs>
</svg>
