<svg width="48" height="48" viewBox="0 0 48 48" fill="none" xmlns="http://www.w3.org/2000/svg">
<rect width="48" height="48" rx="4" fill="url(#paint0_linear_349_1077)"/>
<path fill-rule="evenodd" clip-rule="evenodd" d="M33.2429 28.2012C32.9904 27.9488 32.6582 27.7917 32.3029 27.7568C31.9475 27.7218 31.5911 27.8112 31.2943 28.0096C30.9974 28.208 30.7786 28.5032 30.6749 28.8449C30.5713 29.1865 30.5894 29.5536 30.7261 29.8834C30.8627 30.2133 31.1095 30.4855 31.4244 30.6538C31.7393 30.8221 32.1028 30.8761 32.4529 30.8064C32.8031 30.7368 33.1183 30.5479 33.3448 30.2719C33.5714 29.9959 33.6952 29.6499 33.6952 29.2929C33.6955 29.0901 33.6557 28.8892 33.5781 28.7019C33.5005 28.5145 33.3866 28.3443 33.2429 28.2012ZM32.1516 26.8101C32.7259 26.8103 33.2823 27.0095 33.7262 27.374C34.1701 27.7384 34.4738 28.2455 34.5858 28.8088C34.6977 29.3721 34.6108 29.9567 34.34 30.4632C34.0692 30.9696 33.6311 31.3665 33.1005 31.5862C32.5699 31.8059 31.9795 31.8348 31.4299 31.668C30.8804 31.5012 30.4057 31.149 30.0867 30.6715C29.7677 30.1939 29.6241 29.6205 29.6805 29.049C29.7368 28.4774 29.9896 27.9431 30.3957 27.5371C30.6261 27.3062 30.8998 27.1232 31.2011 26.9984C31.5024 26.8737 31.8254 26.8097 32.1516 26.8101ZM27.9508 35.9985C29.142 36.956 30.6245 37.478 32.1529 37.478C33.6812 37.478 35.1638 36.956 36.3549 35.9985C35.9928 35.2626 35.4446 34.6341 34.7646 34.1755C34.21 33.8027 33.5821 33.5528 32.923 33.4429C32.2639 33.3329 31.5888 33.3654 30.9433 33.5381C30.2978 33.7108 29.6967 34.0198 29.1805 34.4441C28.6644 34.8685 28.245 35.3985 27.9508 35.9985ZM36.8944 26.0319C38.1218 27.2592 38.8254 28.9148 38.8573 30.6502C38.8892 32.3857 38.2469 34.066 37.0654 35.3376C36.5798 34.4601 35.8681 33.7287 35.0041 33.2194C34.1402 32.7101 33.1556 32.4415 32.1527 32.4415C31.1498 32.4415 30.1652 32.7101 29.3013 33.2194C28.4373 33.7287 27.7256 34.4601 27.24 35.3376C26.0438 34.0505 25.4006 32.3453 25.4488 30.5888C25.497 28.8324 26.2328 27.165 27.4977 25.9454C28.7627 24.7258 30.4558 24.0515 32.2129 24.0675C33.9699 24.0835 35.6505 24.7885 36.8931 26.0309L36.8944 26.0319ZM13.9183 14.7042H14.8758V14.1779C14.8766 13.7158 15.0605 13.2728 15.3873 12.946C15.7141 12.6193 16.157 12.4353 16.6191 12.4346H25.8703C26.3324 12.4353 26.7754 12.6193 27.1022 12.946C27.4289 13.2728 27.6128 13.7158 27.6136 14.1779V14.7042H28.5711V14.1779C28.57 13.4622 28.2852 12.7761 27.7791 12.27C27.2731 11.764 26.587 11.4792 25.8713 11.478H16.6182C15.9025 11.4792 15.2164 11.764 14.7103 12.27C14.2042 12.7761 13.9194 13.4622 13.9183 14.1779V14.7042ZM19.3637 24.4149V23.483C19.3637 23.3585 19.4132 23.2391 19.5012 23.1511C19.5892 23.0631 19.7086 23.0136 19.8331 23.0136H22.655C22.7167 23.0136 22.7778 23.0257 22.8347 23.0492C22.8917 23.0728 22.9435 23.1074 22.9871 23.151C23.0307 23.1946 23.0654 23.2463 23.089 23.3033C23.1126 23.3603 23.1247 23.4213 23.1247 23.483V24.4451C25.2322 23.4514 27.3268 22.4232 29.4168 21.3969C30.5849 20.8236 31.7522 20.2506 32.7459 19.7677V16.063C32.7467 15.9507 32.7037 15.8426 32.6259 15.7617C32.5903 15.7245 32.5475 15.6949 32.5002 15.6747C32.4529 15.6544 32.402 15.6438 32.3506 15.6436H10.1376C10.0861 15.6438 10.0352 15.6544 9.98791 15.6747C9.94061 15.6949 9.89788 15.7245 9.86226 15.7617C9.78447 15.8426 9.74138 15.9507 9.7422 16.063V19.7687C10.8425 20.3019 11.6089 20.6759 12.3736 21.0496C14.6952 22.1817 17.0171 23.3142 19.3624 24.4149H19.3637ZM21.2442 27.3956C21.7426 27.3945 22.2203 27.196 22.5728 26.8436C22.9253 26.4912 23.1238 26.0135 23.1251 25.5151V25.4799C25.3618 24.431 27.5985 23.3333 29.828 22.238C30.4414 21.9367 31.0546 21.6357 31.7029 21.3186V23.1406C29.7564 23.2551 27.9273 24.1089 26.5896 25.5274C25.2518 26.9459 24.5066 28.8219 24.5062 30.7718C24.5062 30.8264 24.5062 30.881 24.5082 30.9362H11.1053C11.0206 30.9356 10.9395 30.9017 10.8796 30.8418C10.8198 30.7819 10.7858 30.7009 10.7852 30.6162V21.3183L11.9648 21.8933C14.4275 23.0945 16.8905 24.2945 19.3657 25.4513V25.5151C19.3668 26.0135 19.5652 26.4912 19.9176 26.8437C20.2701 27.1961 20.7478 27.3946 21.2462 27.3956H21.2442ZM21.2442 26.4565C20.9949 26.4554 20.7561 26.3559 20.5798 26.1795C20.4035 26.0032 20.304 25.7645 20.3028 25.5151V23.9517H22.186V25.5141C22.1848 25.7635 22.0852 26.0024 21.9089 26.1787C21.7325 26.355 21.4936 26.4545 21.2442 26.4555V26.4565Z" fill="white"/>
<defs>
<linearGradient id="paint0_linear_349_1077" x1="24" y1="0" x2="24" y2="48" gradientUnits="userSpaceOnUse">
<stop stop-color="#338EC9"/>
<stop offset="1" stop-color="#002A8E"/>
</linearGradient>
</defs>
</svg>
